<svg id="Layer_1" data-name="Layer 1" xmlns="http://www.w3.org/2000/svg" viewBox="0 0 24 24"><title>Untitled-1</title><path d="M10.06,3.21,5.62,7.05H3.89A1.89,1.89,0,0,0,2,8.94v6.87a1.9,1.9,0,0,0,1.89,1.9H5.62l4.44,3.83a1.89,1.89,0,0,0,3.13-1.44V4.66A1.89,1.89,0,0,0,10.06,3.21Z"/><path d="M16.91,3.46A1.24,1.24,0,0,0,15.67,5.6a7.56,7.56,0,0,1,3.73,6.53,7.68,7.68,0,0,1-3.83,6.62,1.22,1.22,0,0,0-.45,1.69,1.3,1.3,0,0,0,1.09.65,1.19,1.19,0,0,0,.6-.15,10.13,10.13,0,0,0,5.08-8.76A10.3,10.3,0,0,0,16.91,3.46Z"/><path d="M18.51,12.13a4.78,4.78,0,0,0-2.84-4.38,1.25,1.25,0,1,0-1,2.29A2.22,2.22,0,0,1,16,12.13a2.26,2.26,0,0,1-1.44,2.14A1.24,1.24,0,0,0,15,16.66a1.46,1.46,0,0,0,.45-.1A4.69,4.69,0,0,0,18.51,12.13Z"/></svg>